<svg width="27" height="26" viewBox="0 0 27 26" fill="none" xmlns="http://www.w3.org/2000/svg">
<g clip-path="url(#clip0_44_37)">
<path d="M23.0791 0H3.5791C1.78673 0 0.329102 1.45762 0.329102 3.25V22.75C0.329102 24.5424 1.78673 26 3.5791 26H23.0791C24.8715 26 26.3291 24.5424 26.3291 22.75V3.25C26.3291 1.45762 24.8715 0 23.0791 0Z" fill="#1976D2"/>
<path d="M22.2666 13H18.2041V9.75C18.2041 8.853 18.9321 8.9375 19.8291 8.9375H21.4541V4.875H18.2041C15.5115 4.875 13.3291 7.05738 13.3291 9.75V13H10.0791V17.0625H13.3291V26H18.2041V17.0625H20.6416L22.2666 13Z" fill="#FAFAFA"/>
</g>
<defs>
<clipPath id="clip0_44_37">
<rect width="26" height="26" fill="white" transform="translate(0.329102)"/>
</clipPath>
</defs>
</svg>
