<svg enable-background="new 0 0 100 100" viewBox="0 0 100 100" xmlns="http://www.w3.org/2000/svg"><g id="Layer_1"/><g id="Layer_2"><g><path d="m95.861 24.752c0-7.801-8.824-12.254-15.003-7.579l-5.844 4.427v.013l-25.014 18.935-25.014-18.948-5.831-4.415c-6.192-4.675-15.016-.221-15.016 7.579v8.413 45.241c0 3.49 2.799 6.316 6.257 6.316h14.59v-35.773l25.014 18.935 25.014-18.935v-.013l.029-.022-.029.035v35.773h14.59c3.457 0 6.257-2.826 6.257-6.316v-45.24l-.038.015.038-.028z" fill="#b5332a"/><path d="m10.396 84.734h14.59v-35.773l-20.847-15.783v45.241c0 3.489 2.799 6.315 6.257 6.315z" fill="#4e85eb"/><path d="m75.014 84.734h14.59c3.457 0 6.257-2.826 6.257-6.316v-45.24l-20.847 15.783z" fill="#58a45c"/><path d="m75.014 21.6v27.348l20.847-15.783v-8.413c0-7.801-8.824-12.254-15.003-7.579z" fill="#f2bc42"/><path d="m24.986 48.961v-27.361l25.014 18.948 25.014-18.935v27.348l-25.014 18.935z" fill="#d85040"/><path d="m4.139 24.765v8.413l20.847 15.783v-27.361l-5.831-4.415c-6.192-4.674-15.016-.221-15.016 7.58z" fill="#b5332a"/></g></g></svg>