<svg width="81" height="59" viewBox="0 0 81 59" fill="none" xmlns="http://www.w3.org/2000/svg">
<path d="M79.3057 9.21221C78.3742 5.58664 75.6304 2.72877 72.144 1.75869C65.8294 5.96046e-07 40.5 0 40.5 0C40.5 0 15.1706 5.96046e-07 8.85263 1.75869C5.36963 2.72877 2.62575 5.58316 1.69425 9.21221C0 15.7864 0 29.5 0 29.5C0 29.5 0 43.2136 1.69425 49.7878C2.62575 53.4133 5.36963 56.2712 8.856 57.2413C15.1706 59 40.5 59 40.5 59C40.5 59 65.8294 59 72.1474 57.2413C75.6304 56.2712 78.3743 53.4168 79.3091 49.7878C81 43.2136 81 29.5 81 29.5C81 29.5 81 15.7864 79.3057 9.21221ZM32.2178 41.9539V17.0461L53.3858 29.5L32.2178 41.9539Z" fill="#CA2323"/>
</svg>
